<?xml version="1.0" standalone="no"?><!DOCTYPE svg PUBLIC "-//W3C//DTD SVG 1.1//EN" "http://www.w3.org/Graphics/SVG/1.1/DTD/svg11.dtd"><svg class="icon" width="200px" height="200.00px" viewBox="0 0 1024 1024" version="1.1" xmlns="http://www.w3.org/2000/svg"><path d="M755.949035 491.670999H532.329001V268.050965c0-11.227716-9.101285-20.331048-20.329001-20.331047s-20.329001 9.103332-20.329001 20.331047V491.670999H268.050965c-11.227716 0-20.329001 9.101285-20.329 20.329001 0 11.225669 9.101285 20.326954 20.329 20.326954h223.620034v223.622081c0 11.227716 9.101285 20.329001 20.329001 20.329s20.329001-9.101285 20.329001-20.329V532.326954h223.620034c11.225669 0 20.329001-9.101285 20.329-20.326954 0-11.227716-9.103332-20.329001-20.329-20.329001z" fill="#2DC3A6" /><path d="M512 64.759933c-247.004627 0-447.240067 200.23544-447.240067 447.240067S264.995373 959.240067 512 959.240067s447.240067-200.23544 447.240067-447.240067S759.004627 64.759933 512 64.759933z m0 853.821109c-224.549196 0-406.581042-182.03287-406.581042-406.581042S287.450804 105.417935 512 105.417935s406.581042 182.03287 406.581042 406.581042-182.03287 406.582065-406.581042 406.582065z" fill="#2DC3A6" /></svg>